<svg width="1920" height="114" viewBox="0 0 1920 114" fill="none" xmlns="http://www.w3.org/2000/svg">
    <path d="M845.753 62.536C845.153 62.536 844.597 62.428 844.085 62.212C843.573 61.996 843.125 61.696 842.741 61.312C842.357 60.92 842.057 60.468 841.841 59.956C841.633 59.444 841.529 58.892 841.529 58.3C841.529 57.708 841.637 57.156 841.853 56.644C842.069 56.132 842.369 55.684 842.753 55.3C843.137 54.908 843.585 54.604 844.097 54.388C844.617 54.172 845.177 54.064 845.777 54.064C846.377 54.064 846.933 54.172 847.445 54.388C847.965 54.596 848.413 54.892 848.789 55.276C849.173 55.66 849.469 56.108 849.677 56.62C849.893 57.124 850.001 57.676 850.001 58.276C850.001 58.876 849.893 59.436 849.677 59.956C849.461 60.468 849.157 60.92 848.765 61.312C848.381 61.696 847.933 61.996 847.421 62.212C846.909 62.428 846.353 62.536 845.753 62.536ZM845.741 62.092C846.285 62.092 846.785 61.996 847.241 61.804C847.697 61.604 848.097 61.332 848.441 60.988C848.793 60.644 849.065 60.24 849.257 59.776C849.449 59.304 849.545 58.804 849.545 58.276C849.545 57.74 849.449 57.244 849.257 56.788C849.073 56.332 848.809 55.932 848.465 55.588C848.129 55.244 847.729 54.98 847.265 54.796C846.809 54.604 846.313 54.508 845.777 54.508C845.233 54.508 844.729 54.604 844.265 54.796C843.801 54.988 843.397 55.26 843.053 55.612C842.717 55.956 842.453 56.356 842.261 56.812C842.069 57.268 841.973 57.764 841.973 58.3C841.973 58.828 842.069 59.324 842.261 59.788C842.453 60.244 842.717 60.648 843.053 61C843.397 61.344 843.797 61.612 844.253 61.804C844.717 61.996 845.213 62.092 845.741 62.092ZM845.861 60.796C845.381 60.796 844.953 60.692 844.577 60.484C844.201 60.268 843.905 59.972 843.689 59.596C843.473 59.22 843.365 58.788 843.365 58.3C843.365 57.812 843.473 57.38 843.689 57.004C843.905 56.628 844.201 56.336 844.577 56.128C844.953 55.912 845.381 55.804 845.861 55.804C846.269 55.804 846.637 55.888 846.965 56.056C847.301 56.216 847.569 56.44 847.769 56.728L847.253 57.112C847.085 56.88 846.881 56.708 846.641 56.596C846.401 56.484 846.137 56.428 845.849 56.428C845.505 56.428 845.197 56.508 844.925 56.668C844.661 56.82 844.449 57.036 844.289 57.316C844.129 57.596 844.049 57.924 844.049 58.3C844.049 58.676 844.129 59.004 844.289 59.284C844.449 59.564 844.661 59.784 844.925 59.944C845.197 60.096 845.505 60.172 845.849 60.172C846.137 60.172 846.401 60.116 846.641 60.004C846.881 59.892 847.085 59.72 847.253 59.488L847.769 59.86C847.569 60.156 847.301 60.388 846.965 60.556C846.637 60.716 846.269 60.796 845.861 60.796ZM858.765 62.572C858.133 62.572 857.549 62.468 857.013 62.26C856.477 62.044 856.013 61.744 855.621 61.36C855.229 60.976 854.921 60.524 854.697 60.004C854.481 59.484 854.373 58.916 854.373 58.3C854.373 57.684 854.481 57.116 854.697 56.596C854.921 56.076 855.229 55.624 855.621 55.24C856.021 54.856 856.489 54.56 857.025 54.352C857.561 54.136 858.145 54.028 858.777 54.028C859.385 54.028 859.957 54.132 860.493 54.34C861.029 54.54 861.481 54.844 861.849 55.252L861.285 55.816C860.941 55.464 860.561 55.212 860.145 55.06C859.729 54.9 859.281 54.82 858.801 54.82C858.297 54.82 857.829 54.908 857.397 55.084C856.965 55.252 856.589 55.496 856.269 55.816C855.949 56.128 855.697 56.496 855.513 56.92C855.337 57.336 855.249 57.796 855.249 58.3C855.249 58.804 855.337 59.268 855.513 59.692C855.697 60.108 855.949 60.476 856.269 60.796C856.589 61.108 856.965 61.352 857.397 61.528C857.829 61.696 858.297 61.78 858.801 61.78C859.281 61.78 859.729 61.7 860.145 61.54C860.561 61.38 860.941 61.124 861.285 60.772L861.849 61.336C861.481 61.744 861.029 62.052 860.493 62.26C859.957 62.468 859.381 62.572 858.765 62.572ZM867.238 62.572C866.606 62.572 866.018 62.468 865.474 62.26C864.938 62.044 864.47 61.744 864.07 61.36C863.678 60.968 863.37 60.516 863.146 60.004C862.93 59.484 862.822 58.916 862.822 58.3C862.822 57.684 862.93 57.12 863.146 56.608C863.37 56.088 863.678 55.636 864.07 55.252C864.47 54.86 864.938 54.56 865.474 54.352C866.01 54.136 866.598 54.028 867.238 54.028C867.87 54.028 868.454 54.136 868.99 54.352C869.526 54.56 869.99 54.856 870.382 55.24C870.782 55.624 871.09 56.076 871.306 56.596C871.53 57.116 871.642 57.684 871.642 58.3C871.642 58.916 871.53 59.484 871.306 60.004C871.09 60.524 870.782 60.976 870.382 61.36C869.99 61.744 869.526 62.044 868.99 62.26C868.454 62.468 867.87 62.572 867.238 62.572ZM867.238 61.78C867.742 61.78 868.206 61.696 868.63 61.528C869.062 61.352 869.434 61.108 869.746 60.796C870.066 60.476 870.314 60.108 870.49 59.692C870.666 59.268 870.754 58.804 870.754 58.3C870.754 57.796 870.666 57.336 870.49 56.92C870.314 56.496 870.066 56.128 869.746 55.816C869.434 55.496 869.062 55.252 868.63 55.084C868.206 54.908 867.742 54.82 867.238 54.82C866.734 54.82 866.266 54.908 865.834 55.084C865.402 55.252 865.026 55.496 864.706 55.816C864.394 56.128 864.146 56.496 863.962 56.92C863.786 57.336 863.698 57.796 863.698 58.3C863.698 58.796 863.786 59.256 863.962 59.68C864.146 60.104 864.394 60.476 864.706 60.796C865.026 61.108 865.402 61.352 865.834 61.528C866.266 61.696 866.734 61.78 867.238 61.78ZM873.633 62.5V54.1H876.777C877.489 54.1 878.101 54.216 878.613 54.448C879.125 54.672 879.517 55 879.789 55.432C880.069 55.856 880.209 56.372 880.209 56.98C880.209 57.572 880.069 58.084 879.789 58.516C879.517 58.94 879.125 59.268 878.613 59.5C878.101 59.732 877.489 59.848 876.777 59.848H874.125L874.521 59.428V62.5H873.633ZM874.521 59.5L874.125 59.068H876.753C877.593 59.068 878.229 58.888 878.661 58.528C879.101 58.16 879.321 57.644 879.321 56.98C879.321 56.308 879.101 55.788 878.661 55.42C878.229 55.052 877.593 54.868 876.753 54.868H874.125L874.521 54.448V59.5ZM884.133 62.5V59.38L884.337 59.932L880.773 54.1H881.721L884.853 59.224H884.349L887.481 54.1H888.369L884.805 59.932L885.009 59.38V62.5H884.133ZM889.57 62.5V54.1H892.714C893.426 54.1 894.038 54.216 894.55 54.448C895.062 54.672 895.454 55 895.726 55.432C896.006 55.856 896.146 56.372 896.146 56.98C896.146 57.572 896.006 58.084 895.726 58.516C895.454 58.94 895.062 59.268 894.55 59.5C894.038 59.724 893.426 59.836 892.714 59.836H890.062L890.458 59.428V62.5H889.57ZM895.306 62.5L893.146 59.452H894.106L896.278 62.5H895.306ZM890.458 59.5L890.062 59.08H892.69C893.53 59.08 894.166 58.896 894.598 58.528C895.038 58.16 895.258 57.644 895.258 56.98C895.258 56.308 895.038 55.788 894.598 55.42C894.166 55.052 893.53 54.868 892.69 54.868H890.062L890.458 54.448V59.5ZM898.242 62.5V54.1H899.13V62.5H898.242ZM905.547 62.572C904.907 62.572 904.315 62.468 903.771 62.26C903.235 62.044 902.767 61.744 902.367 61.36C901.975 60.976 901.667 60.524 901.443 60.004C901.227 59.484 901.119 58.916 901.119 58.3C901.119 57.684 901.227 57.116 901.443 56.596C901.667 56.076 901.979 55.624 902.379 55.24C902.779 54.856 903.247 54.56 903.783 54.352C904.327 54.136 904.919 54.028 905.559 54.028C906.199 54.028 906.783 54.128 907.311 54.328C907.847 54.528 908.303 54.832 908.679 55.24L908.127 55.804C907.775 55.452 907.387 55.2 906.963 55.048C906.539 54.896 906.083 54.82 905.595 54.82C905.075 54.82 904.595 54.908 904.155 55.084C903.723 55.252 903.343 55.496 903.015 55.816C902.695 56.128 902.443 56.496 902.259 56.92C902.083 57.336 901.995 57.796 901.995 58.3C901.995 58.796 902.083 59.256 902.259 59.68C902.443 60.104 902.695 60.476 903.015 60.796C903.343 61.108 903.723 61.352 904.155 61.528C904.595 61.696 905.071 61.78 905.583 61.78C906.063 61.78 906.515 61.708 906.939 61.564C907.371 61.42 907.767 61.176 908.127 60.832L908.631 61.504C908.231 61.856 907.763 62.124 907.227 62.308C906.691 62.484 906.131 62.572 905.547 62.572ZM907.779 61.396V58.3H908.631V61.504L907.779 61.396ZM917.289 54.1H918.165V62.5H917.289V54.1ZM912.033 62.5H911.145V54.1H912.033V62.5ZM917.373 58.624H911.937V57.844H917.373V58.624ZM922.538 62.5V54.868H919.586V54.1H926.378V54.868H923.426V62.5H922.538ZM930.037 62.5V61.888L933.529 58.468C933.849 58.156 934.089 57.884 934.249 57.652C934.409 57.412 934.517 57.188 934.573 56.98C934.629 56.772 934.657 56.576 934.657 56.392C934.657 55.904 934.489 55.52 934.153 55.24C933.825 54.96 933.337 54.82 932.689 54.82C932.193 54.82 931.753 54.896 931.369 55.048C930.993 55.2 930.669 55.436 930.397 55.756L929.785 55.228C930.113 54.844 930.533 54.548 931.045 54.34C931.557 54.132 932.129 54.028 932.761 54.028C933.329 54.028 933.821 54.12 934.237 54.304C934.653 54.48 934.973 54.74 935.197 55.084C935.429 55.428 935.545 55.832 935.545 56.296C935.545 56.568 935.505 56.836 935.425 57.1C935.353 57.364 935.217 57.644 935.017 57.94C934.825 58.228 934.541 58.556 934.165 58.924L930.961 62.068L930.721 61.732H935.929V62.5H930.037ZM940.338 62.572C939.69 62.572 939.114 62.404 938.61 62.068C938.106 61.724 937.71 61.236 937.422 60.604C937.134 59.964 936.99 59.196 936.99 58.3C936.99 57.404 937.134 56.64 937.422 56.008C937.71 55.368 938.106 54.88 938.61 54.544C939.114 54.2 939.69 54.028 940.338 54.028C940.986 54.028 941.562 54.2 942.066 54.544C942.57 54.88 942.966 55.368 943.254 56.008C943.55 56.64 943.698 57.404 943.698 58.3C943.698 59.196 943.55 59.964 943.254 60.604C942.966 61.236 942.57 61.724 942.066 62.068C941.562 62.404 940.986 62.572 940.338 62.572ZM940.338 61.78C940.834 61.78 941.266 61.648 941.634 61.384C942.002 61.112 942.29 60.72 942.498 60.208C942.706 59.688 942.81 59.052 942.81 58.3C942.81 57.548 942.706 56.916 942.498 56.404C942.29 55.884 942.002 55.492 941.634 55.228C941.266 54.956 940.834 54.82 940.338 54.82C939.858 54.82 939.43 54.956 939.054 55.228C938.678 55.492 938.386 55.884 938.178 56.404C937.97 56.916 937.866 57.548 937.866 58.3C937.866 59.052 937.97 59.688 938.178 60.208C938.386 60.72 938.678 61.112 939.054 61.384C939.43 61.648 939.858 61.78 940.338 61.78ZM946.4 62.5V54.46L946.784 54.868H944.42V54.1H947.264V62.5H946.4ZM952.464 62.572C951.792 62.572 951.212 62.476 950.724 62.284C950.244 62.092 949.872 61.816 949.608 61.456C949.352 61.088 949.224 60.656 949.224 60.16C949.224 59.68 949.348 59.272 949.596 58.936C949.852 58.592 950.22 58.328 950.7 58.144C951.188 57.96 951.776 57.868 952.464 57.868C953.144 57.868 953.728 57.96 954.216 58.144C954.704 58.328 955.076 58.592 955.332 58.936C955.596 59.272 955.728 59.68 955.728 60.16C955.728 60.656 955.596 61.088 955.332 61.456C955.068 61.816 954.692 62.092 954.204 62.284C953.716 62.476 953.136 62.572 952.464 62.572ZM952.464 61.84C953.208 61.84 953.788 61.688 954.204 61.384C954.628 61.08 954.84 60.668 954.84 60.148C954.84 59.628 954.628 59.22 954.204 58.924C953.788 58.62 953.208 58.468 952.464 58.468C951.72 58.468 951.14 58.62 950.724 58.924C950.308 59.22 950.1 59.628 950.1 60.148C950.1 60.668 950.308 61.08 950.724 61.384C951.14 61.688 951.72 61.84 952.464 61.84ZM952.464 58.36C951.84 58.36 951.308 58.276 950.868 58.108C950.436 57.94 950.104 57.7 949.872 57.388C949.64 57.068 949.524 56.688 949.524 56.248C949.524 55.784 949.644 55.388 949.884 55.06C950.132 54.724 950.476 54.468 950.916 54.292C951.356 54.116 951.872 54.028 952.464 54.028C953.056 54.028 953.572 54.116 954.012 54.292C954.46 54.468 954.808 54.724 955.056 55.06C955.304 55.388 955.428 55.784 955.428 56.248C955.428 56.688 955.312 57.068 955.08 57.388C954.848 57.7 954.508 57.94 954.06 58.108C953.62 58.276 953.088 58.36 952.464 58.36ZM952.464 57.784C953.12 57.784 953.632 57.648 954 57.376C954.368 57.104 954.552 56.74 954.552 56.284C954.552 55.804 954.36 55.432 953.976 55.168C953.6 54.896 953.096 54.76 952.464 54.76C951.832 54.76 951.328 54.896 950.952 55.168C950.576 55.432 950.388 55.8 950.388 56.272C950.388 56.736 950.568 57.104 950.928 57.376C951.296 57.648 951.808 57.784 952.464 57.784ZM957.089 64.252L957.617 62.032L957.713 62.548C957.529 62.548 957.373 62.488 957.245 62.368C957.125 62.248 957.065 62.092 957.065 61.9C957.065 61.708 957.125 61.552 957.245 61.432C957.373 61.312 957.525 61.252 957.701 61.252C957.885 61.252 958.033 61.316 958.145 61.444C958.265 61.572 958.325 61.724 958.325 61.9C958.325 61.964 958.321 62.028 958.313 62.092C958.305 62.156 958.289 62.228 958.265 62.308C958.241 62.388 958.209 62.484 958.169 62.596L957.665 64.252H957.089ZM965.101 62.5V54.868H962.149V54.1H968.941V54.868H965.989V62.5H965.101ZM972.091 62.56C971.483 62.56 970.935 62.424 970.447 62.152C969.967 61.872 969.587 61.492 969.307 61.012C969.027 60.524 968.887 59.968 968.887 59.344C968.887 58.712 969.027 58.156 969.307 57.676C969.587 57.196 969.967 56.82 970.447 56.548C970.927 56.276 971.475 56.14 972.091 56.14C972.715 56.14 973.267 56.276 973.747 56.548C974.235 56.82 974.615 57.196 974.887 57.676C975.167 58.156 975.307 58.712 975.307 59.344C975.307 59.968 975.167 60.524 974.887 61.012C974.615 61.492 974.235 61.872 973.747 62.152C973.259 62.424 972.707 62.56 972.091 62.56ZM972.091 61.804C972.547 61.804 972.951 61.704 973.303 61.504C973.655 61.296 973.931 61.008 974.131 60.64C974.339 60.264 974.443 59.832 974.443 59.344C974.443 58.848 974.339 58.416 974.131 58.048C973.931 57.68 973.655 57.396 973.303 57.196C972.951 56.988 972.551 56.884 972.103 56.884C971.655 56.884 971.255 56.988 970.903 57.196C970.551 57.396 970.271 57.68 970.063 58.048C969.855 58.416 969.751 58.848 969.751 59.344C969.751 59.832 969.855 60.264 970.063 60.64C970.271 61.008 970.551 61.296 970.903 61.504C971.255 61.704 971.651 61.804 972.091 61.804ZM979.651 62.56C979.115 62.56 978.647 62.46 978.247 62.26C977.847 62.06 977.535 61.76 977.311 61.36C977.095 60.96 976.987 60.46 976.987 59.86V56.2H977.839V59.764C977.839 60.436 978.003 60.944 978.331 61.288C978.667 61.624 979.135 61.792 979.735 61.792C980.175 61.792 980.555 61.704 980.875 61.528C981.203 61.344 981.451 61.08 981.619 60.736C981.795 60.392 981.883 59.98 981.883 59.5V56.2H982.735V62.5H981.919V60.772L982.051 61.084C981.851 61.548 981.539 61.912 981.115 62.176C980.699 62.432 980.211 62.56 979.651 62.56ZM986.801 62.56C986.281 62.56 985.789 62.488 985.325 62.344C984.861 62.192 984.497 62.004 984.233 61.78L984.617 61.108C984.873 61.3 985.201 61.468 985.601 61.612C986.001 61.748 986.421 61.816 986.861 61.816C987.461 61.816 987.893 61.724 988.157 61.54C988.421 61.348 988.553 61.096 988.553 60.784C988.553 60.552 988.477 60.372 988.325 60.244C988.181 60.108 987.989 60.008 987.749 59.944C987.509 59.872 987.241 59.812 986.945 59.764C986.649 59.716 986.353 59.66 986.057 59.596C985.769 59.532 985.505 59.44 985.265 59.32C985.025 59.192 984.829 59.02 984.677 58.804C984.533 58.588 984.461 58.3 984.461 57.94C984.461 57.596 984.557 57.288 984.749 57.016C984.941 56.744 985.221 56.532 985.589 56.38C985.965 56.22 986.421 56.14 986.957 56.14C987.365 56.14 987.773 56.196 988.181 56.308C988.589 56.412 988.925 56.552 989.189 56.728L988.817 57.412C988.537 57.22 988.237 57.084 987.917 57.004C987.597 56.916 987.277 56.872 986.957 56.872C986.389 56.872 985.969 56.972 985.697 57.172C985.433 57.364 985.301 57.612 985.301 57.916C985.301 58.156 985.373 58.344 985.517 58.48C985.669 58.616 985.865 58.724 986.105 58.804C986.353 58.876 986.621 58.936 986.909 58.984C987.205 59.032 987.497 59.092 987.785 59.164C988.081 59.228 988.349 59.32 988.589 59.44C988.837 59.552 989.033 59.716 989.177 59.932C989.329 60.14 989.405 60.416 989.405 60.76C989.405 61.128 989.301 61.448 989.093 61.72C988.893 61.984 988.597 62.192 988.205 62.344C987.821 62.488 987.353 62.56 986.801 62.56ZM996.617 62.56C996.017 62.56 995.477 62.424 994.997 62.152C994.525 61.88 994.153 61.504 993.881 61.024C993.609 60.536 993.473 59.976 993.473 59.344C993.473 58.704 993.609 58.144 993.881 57.664C994.153 57.184 994.525 56.812 994.997 56.548C995.477 56.276 996.017 56.14 996.617 56.14C997.169 56.14 997.661 56.264 998.093 56.512C998.533 56.76 998.881 57.124 999.137 57.604C999.401 58.076 999.533 58.656 999.533 59.344C999.533 60.024 999.405 60.604 999.149 61.084C998.893 61.564 998.545 61.932 998.105 62.188C997.673 62.436 997.177 62.56 996.617 62.56ZM996.677 61.804C997.125 61.804 997.525 61.704 997.877 61.504C998.237 61.296 998.517 61.008 998.717 60.64C998.925 60.264 999.029 59.832 999.029 59.344C999.029 58.848 998.925 58.416 998.717 58.048C998.517 57.68 998.237 57.396 997.877 57.196C997.525 56.988 997.125 56.884 996.677 56.884C996.237 56.884 995.841 56.988 995.489 57.196C995.137 57.396 994.857 57.68 994.649 58.048C994.441 58.416 994.337 58.848 994.337 59.344C994.337 59.832 994.441 60.264 994.649 60.64C994.857 61.008 995.137 61.296 995.489 61.504C995.841 61.704 996.237 61.804 996.677 61.804ZM999.053 62.5V60.604L999.137 59.332L999.017 58.06V53.596H999.869V62.5H999.053ZM1002.24 62.5V56.2H1003.06V57.916L1002.97 57.616C1003.15 57.136 1003.45 56.772 1003.86 56.524C1004.28 56.268 1004.79 56.14 1005.41 56.14V56.968C1005.38 56.968 1005.35 56.968 1005.31 56.968C1005.28 56.96 1005.25 56.956 1005.22 56.956C1004.55 56.956 1004.03 57.16 1003.66 57.568C1003.28 57.968 1003.09 58.54 1003.09 59.284V62.5H1002.24ZM1009.47 62.56C1008.87 62.56 1008.32 62.424 1007.83 62.152C1007.35 61.872 1006.97 61.492 1006.69 61.012C1006.41 60.524 1006.27 59.968 1006.27 59.344C1006.27 58.712 1006.41 58.156 1006.69 57.676C1006.97 57.196 1007.35 56.82 1007.83 56.548C1008.31 56.276 1008.86 56.14 1009.47 56.14C1010.1 56.14 1010.65 56.276 1011.13 56.548C1011.62 56.82 1012 57.196 1012.27 57.676C1012.55 58.156 1012.69 58.712 1012.69 59.344C1012.69 59.968 1012.55 60.524 1012.27 61.012C1012 61.492 1011.62 61.872 1011.13 62.152C1010.64 62.424 1010.09 62.56 1009.47 62.56ZM1009.47 61.804C1009.93 61.804 1010.33 61.704 1010.69 61.504C1011.04 61.296 1011.31 61.008 1011.51 60.64C1011.72 60.264 1011.83 59.832 1011.83 59.344C1011.83 58.848 1011.72 58.416 1011.51 58.048C1011.31 57.68 1011.04 57.396 1010.69 57.196C1010.33 56.988 1009.93 56.884 1009.49 56.884C1009.04 56.884 1008.64 56.988 1008.29 57.196C1007.93 57.396 1007.65 57.68 1007.45 58.048C1007.24 58.416 1007.13 58.848 1007.13 59.344C1007.13 59.832 1007.24 60.264 1007.45 60.64C1007.65 61.008 1007.93 61.296 1008.29 61.504C1008.64 61.704 1009.03 61.804 1009.47 61.804ZM1014.43 62.5V56.2H1015.28V62.5H1014.43ZM1014.86 54.808C1014.69 54.808 1014.54 54.748 1014.42 54.628C1014.3 54.508 1014.24 54.364 1014.24 54.196C1014.24 54.028 1014.3 53.888 1014.42 53.776C1014.54 53.656 1014.69 53.596 1014.86 53.596C1015.04 53.596 1015.19 53.652 1015.31 53.764C1015.43 53.876 1015.49 54.016 1015.49 54.184C1015.49 54.36 1015.43 54.508 1015.31 54.628C1015.19 54.748 1015.05 54.808 1014.86 54.808ZM1019.64 62.56C1019.05 62.56 1018.6 62.4 1018.28 62.08C1017.96 61.76 1017.8 61.308 1017.8 60.724V54.808H1018.65V60.676C1018.65 61.044 1018.74 61.328 1018.92 61.528C1019.12 61.728 1019.39 61.828 1019.74 61.828C1020.12 61.828 1020.43 61.72 1020.68 61.504L1020.98 62.116C1020.81 62.268 1020.6 62.38 1020.36 62.452C1020.13 62.524 1019.89 62.56 1019.64 62.56ZM1016.67 56.908V56.2H1020.57V56.908H1016.67ZM1024.22 62.56C1023.7 62.56 1023.21 62.488 1022.74 62.344C1022.28 62.192 1021.92 62.004 1021.65 61.78L1022.04 61.108C1022.29 61.3 1022.62 61.468 1023.02 61.612C1023.42 61.748 1023.84 61.816 1024.28 61.816C1024.88 61.816 1025.31 61.724 1025.58 61.54C1025.84 61.348 1025.97 61.096 1025.97 60.784C1025.97 60.552 1025.9 60.372 1025.74 60.244C1025.6 60.108 1025.41 60.008 1025.17 59.944C1024.93 59.872 1024.66 59.812 1024.36 59.764C1024.07 59.716 1023.77 59.66 1023.48 59.596C1023.19 59.532 1022.92 59.44 1022.68 59.32C1022.44 59.192 1022.25 59.02 1022.1 58.804C1021.95 58.588 1021.88 58.3 1021.88 57.94C1021.88 57.596 1021.98 57.288 1022.17 57.016C1022.36 56.744 1022.64 56.532 1023.01 56.38C1023.38 56.22 1023.84 56.14 1024.38 56.14C1024.78 56.14 1025.19 56.196 1025.6 56.308C1026.01 56.412 1026.34 56.552 1026.61 56.728L1026.24 57.412C1025.96 57.22 1025.66 57.084 1025.34 57.004C1025.02 56.916 1024.7 56.872 1024.38 56.872C1023.81 56.872 1023.39 56.972 1023.12 57.172C1022.85 57.364 1022.72 57.612 1022.72 57.916C1022.72 58.156 1022.79 58.344 1022.94 58.48C1023.09 58.616 1023.28 58.724 1023.52 58.804C1023.77 58.876 1024.04 58.936 1024.33 58.984C1024.62 59.032 1024.92 59.092 1025.2 59.164C1025.5 59.228 1025.77 59.32 1026.01 59.44C1026.26 59.552 1026.45 59.716 1026.6 59.932C1026.75 60.14 1026.82 60.416 1026.82 60.76C1026.82 61.128 1026.72 61.448 1026.51 61.72C1026.31 61.984 1026.02 62.192 1025.62 62.344C1025.24 62.488 1024.77 62.56 1024.22 62.56ZM1031.53 62.5V56.2H1032.34V57.916L1032.26 57.616C1032.44 57.136 1032.73 56.772 1033.15 56.524C1033.56 56.268 1034.08 56.14 1034.7 56.14V56.968C1034.66 56.968 1034.63 56.968 1034.6 56.968C1034.57 56.96 1034.54 56.956 1034.5 56.956C1033.84 56.956 1033.32 57.16 1032.94 57.568C1032.57 57.968 1032.38 58.54 1032.38 59.284V62.5H1031.53ZM1038.87 62.56C1038.21 62.56 1037.64 62.424 1037.14 62.152C1036.64 61.872 1036.26 61.492 1035.98 61.012C1035.7 60.524 1035.56 59.968 1035.56 59.344C1035.56 58.72 1035.69 58.168 1035.95 57.688C1036.22 57.208 1036.59 56.832 1037.06 56.56C1037.53 56.28 1038.06 56.14 1038.64 56.14C1039.23 56.14 1039.76 56.276 1040.21 56.548C1040.68 56.812 1041.04 57.188 1041.3 57.676C1041.57 58.156 1041.7 58.712 1041.7 59.344C1041.7 59.384 1041.7 59.428 1041.69 59.476C1041.69 59.516 1041.69 59.56 1041.69 59.608H1036.2V58.972H1041.23L1040.9 59.224C1040.9 58.768 1040.8 58.364 1040.6 58.012C1040.4 57.652 1040.14 57.372 1039.8 57.172C1039.47 56.972 1039.08 56.872 1038.64 56.872C1038.21 56.872 1037.82 56.972 1037.48 57.172C1037.13 57.372 1036.86 57.652 1036.67 58.012C1036.48 58.372 1036.38 58.784 1036.38 59.248V59.38C1036.38 59.86 1036.49 60.284 1036.7 60.652C1036.91 61.012 1037.21 61.296 1037.58 61.504C1037.97 61.704 1038.4 61.804 1038.89 61.804C1039.28 61.804 1039.63 61.736 1039.96 61.6C1040.3 61.464 1040.58 61.256 1040.82 60.976L1041.3 61.528C1041.02 61.864 1040.67 62.12 1040.25 62.296C1039.83 62.472 1039.37 62.56 1038.87 62.56ZM1037.85 55.216L1039.49 53.728H1040.63L1038.69 55.216H1037.85ZM1045.13 62.56C1044.61 62.56 1044.11 62.488 1043.65 62.344C1043.19 62.192 1042.82 62.004 1042.56 61.78L1042.94 61.108C1043.2 61.3 1043.53 61.468 1043.93 61.612C1044.33 61.748 1044.75 61.816 1045.19 61.816C1045.79 61.816 1046.22 61.724 1046.48 61.54C1046.75 61.348 1046.88 61.096 1046.88 60.784C1046.88 60.552 1046.8 60.372 1046.65 60.244C1046.51 60.108 1046.31 60.008 1046.07 59.944C1045.83 59.872 1045.57 59.812 1045.27 59.764C1044.97 59.716 1044.68 59.66 1044.38 59.596C1044.09 59.532 1043.83 59.44 1043.59 59.32C1043.35 59.192 1043.15 59.02 1043 58.804C1042.86 58.588 1042.79 58.3 1042.79 57.94C1042.79 57.596 1042.88 57.288 1043.07 57.016C1043.27 56.744 1043.55 56.532 1043.91 56.38C1044.29 56.22 1044.75 56.14 1045.28 56.14C1045.69 56.14 1046.1 56.196 1046.51 56.308C1046.91 56.412 1047.25 56.552 1047.51 56.728L1047.14 57.412C1046.86 57.22 1046.56 57.084 1046.24 57.004C1045.92 56.916 1045.6 56.872 1045.28 56.872C1044.71 56.872 1044.29 56.972 1044.02 57.172C1043.76 57.364 1043.63 57.612 1043.63 57.916C1043.63 58.156 1043.7 58.344 1043.84 58.48C1043.99 58.616 1044.19 58.724 1044.43 58.804C1044.68 58.876 1044.95 58.936 1045.23 58.984C1045.53 59.032 1045.82 59.092 1046.11 59.164C1046.41 59.228 1046.67 59.32 1046.91 59.44C1047.16 59.552 1047.36 59.716 1047.5 59.932C1047.65 60.14 1047.73 60.416 1047.73 60.76C1047.73 61.128 1047.63 61.448 1047.42 61.72C1047.22 61.984 1046.92 62.192 1046.53 62.344C1046.15 62.488 1045.68 62.56 1045.13 62.56ZM1051.97 62.56C1051.31 62.56 1050.74 62.424 1050.24 62.152C1049.74 61.872 1049.36 61.492 1049.08 61.012C1048.8 60.524 1048.66 59.968 1048.66 59.344C1048.66 58.72 1048.79 58.168 1049.05 57.688C1049.32 57.208 1049.69 56.832 1050.16 56.56C1050.63 56.28 1051.16 56.14 1051.74 56.14C1052.33 56.14 1052.86 56.276 1053.31 56.548C1053.78 56.812 1054.14 57.188 1054.4 57.676C1054.67 58.156 1054.8 58.712 1054.8 59.344C1054.8 59.384 1054.8 59.428 1054.79 59.476C1054.79 59.516 1054.79 59.56 1054.79 59.608H1049.3V58.972H1054.33L1054 59.224C1054 58.768 1053.9 58.364 1053.7 58.012C1053.5 57.652 1053.24 57.372 1052.9 57.172C1052.57 56.972 1052.18 56.872 1051.74 56.872C1051.31 56.872 1050.92 56.972 1050.58 57.172C1050.23 57.372 1049.96 57.652 1049.77 58.012C1049.58 58.372 1049.48 58.784 1049.48 59.248V59.38C1049.48 59.86 1049.59 60.284 1049.8 60.652C1050.01 61.012 1050.31 61.296 1050.68 61.504C1051.07 61.704 1051.5 61.804 1051.99 61.804C1052.38 61.804 1052.73 61.736 1053.06 61.6C1053.4 61.464 1053.68 61.256 1053.92 60.976L1054.4 61.528C1054.12 61.864 1053.77 62.12 1053.35 62.296C1052.93 62.472 1052.47 62.56 1051.97 62.56ZM1056.53 62.5V56.2H1057.35V57.916L1057.27 57.616C1057.44 57.136 1057.74 56.772 1058.15 56.524C1058.57 56.268 1059.09 56.14 1059.7 56.14V56.968C1059.67 56.968 1059.64 56.968 1059.61 56.968C1059.57 56.96 1059.54 56.956 1059.51 56.956C1058.85 56.956 1058.33 57.16 1057.95 57.568C1057.57 57.968 1057.39 58.54 1057.39 59.284V62.5H1056.53ZM1063.15 62.5L1060.35 56.2H1061.24L1063.81 62.044H1063.39L1065.99 56.2H1066.83L1064.02 62.5H1063.15ZM1070.53 62.56C1069.88 62.56 1069.3 62.424 1068.8 62.152C1068.31 61.872 1067.92 61.492 1067.64 61.012C1067.36 60.524 1067.22 59.968 1067.22 59.344C1067.22 58.72 1067.35 58.168 1067.62 57.688C1067.89 57.208 1068.26 56.832 1068.72 56.56C1069.19 56.28 1069.72 56.14 1070.3 56.14C1070.9 56.14 1071.42 56.276 1071.88 56.548C1072.34 56.812 1072.7 57.188 1072.97 57.676C1073.23 58.156 1073.36 58.712 1073.36 59.344C1073.36 59.384 1073.36 59.428 1073.35 59.476C1073.35 59.516 1073.35 59.56 1073.35 59.608H1067.87V58.972H1072.9L1072.56 59.224C1072.56 58.768 1072.46 58.364 1072.26 58.012C1072.07 57.652 1071.8 57.372 1071.47 57.172C1071.13 56.972 1070.74 56.872 1070.3 56.872C1069.87 56.872 1069.48 56.972 1069.14 57.172C1068.8 57.372 1068.53 57.652 1068.34 58.012C1068.14 58.372 1068.05 58.784 1068.05 59.248V59.38C1068.05 59.86 1068.15 60.284 1068.36 60.652C1068.58 61.012 1068.87 61.296 1069.25 61.504C1069.63 61.704 1070.07 61.804 1070.56 61.804C1070.94 61.804 1071.3 61.736 1071.62 61.6C1071.96 61.464 1072.25 61.256 1072.49 60.976L1072.97 61.528C1072.69 61.864 1072.34 62.12 1071.91 62.296C1071.5 62.472 1071.04 62.56 1070.53 62.56ZM1069.51 55.216L1071.16 53.728H1072.3L1070.35 55.216H1069.51ZM1076.79 62.56C1076.27 62.56 1075.78 62.488 1075.31 62.344C1074.85 62.192 1074.49 62.004 1074.22 61.78L1074.61 61.108C1074.86 61.3 1075.19 61.468 1075.59 61.612C1075.99 61.748 1076.41 61.816 1076.85 61.816C1077.45 61.816 1077.88 61.724 1078.15 61.54C1078.41 61.348 1078.54 61.096 1078.54 60.784C1078.54 60.552 1078.47 60.372 1078.31 60.244C1078.17 60.108 1077.98 60.008 1077.74 59.944C1077.5 59.872 1077.23 59.812 1076.93 59.764C1076.64 59.716 1076.34 59.66 1076.05 59.596C1075.76 59.532 1075.49 59.44 1075.25 59.32C1075.01 59.192 1074.82 59.02 1074.67 58.804C1074.52 58.588 1074.45 58.3 1074.45 57.94C1074.45 57.596 1074.55 57.288 1074.74 57.016C1074.93 56.744 1075.21 56.532 1075.58 56.38C1075.95 56.22 1076.41 56.14 1076.95 56.14C1077.35 56.14 1077.76 56.196 1078.17 56.308C1078.58 56.412 1078.91 56.552 1079.18 56.728L1078.81 57.412C1078.53 57.22 1078.23 57.084 1077.91 57.004C1077.59 56.916 1077.27 56.872 1076.95 56.872C1076.38 56.872 1075.96 56.972 1075.69 57.172C1075.42 57.364 1075.29 57.612 1075.29 57.916C1075.29 58.156 1075.36 58.344 1075.51 58.48C1075.66 58.616 1075.85 58.724 1076.09 58.804C1076.34 58.876 1076.61 58.936 1076.9 58.984C1077.19 59.032 1077.49 59.092 1077.77 59.164C1078.07 59.228 1078.34 59.32 1078.58 59.44C1078.83 59.552 1079.02 59.716 1079.17 59.932C1079.32 60.14 1079.39 60.416 1079.39 60.76C1079.39 61.128 1079.29 61.448 1079.08 61.72C1078.88 61.984 1078.59 62.192 1078.19 62.344C1077.81 62.488 1077.34 62.56 1076.79 62.56Z" fill="#C0C0C0"/>
</svg>